<svg id="visual" viewBox="0 0 900 450" width="900" height="450" xmlns="http://www.w3.org/2000/svg" xmlns:xlink="http://www.w3.org/1999/xlink" version="1.1"><rect x="0" y="0" width="900" height="450" fill="#09090B"></rect><path d="M0 149L129 200L257 189L386 118L514 203L643 182L771 126L900 111L900 451L771 451L643 451L514 451L386 451L257 451L129 451L0 451Z" fill="#09090b"></path><path d="M0 181L129 157L257 210L386 168L514 235L643 177L771 217L900 264L900 451L771 451L643 451L514 451L386 451L257 451L129 451L0 451Z" fill="#292a43"></path><path d="M0 220L129 278L257 314L386 302L514 249L643 308L771 242L900 206L900 451L771 451L643 451L514 451L386 451L257 451L129 451L0 451Z" fill="#4c487f"></path><path d="M0 297L129 364L257 357L386 293L514 306L643 338L771 295L900 280L900 451L771 451L643 451L514 451L386 451L257 451L129 451L0 451Z" fill="#7767be"></path><path d="M0 382L129 346L257 361L386 382L514 406L643 381L771 380L900 346L900 451L771 451L643 451L514 451L386 451L257 451L129 451L0 451Z" fill="#ac85ff"></path></svg>